<svg xmlns="http://www.w3.org/2000/svg" xmlns:xlink="http://www.w3.org/1999/xlink" width="200" zoomAndPan="magnify" viewBox="0 0 150 149.999998" height="200" preserveAspectRatio="xMidYMid meet" version="1.0"><defs><clipPath id="5c3fe0832b"><path d="M 0 0 L 150 0 L 150 75 L 0 75 Z M 0 0 " clip-rule="nonzero"/></clipPath><clipPath id="7cf274c863"><path d="M 0 74.871094 C 0 94.726562 7.886719 113.769531 21.929688 127.8125 C 35.96875 141.851562 55.011719 149.742188 74.871094 149.742188 C 94.726562 149.742188 113.769531 141.851562 127.8125 127.8125 C 141.851562 113.769531 149.742188 94.726562 149.742188 74.871094 C 149.742188 55.011719 141.851562 35.96875 127.8125 21.929688 C 113.769531 7.886719 94.726562 0 74.871094 0 C 55.011719 0 35.96875 7.886719 21.929688 21.929688 C 7.886719 35.96875 0 55.011719 0 74.871094 Z M 0 74.871094 " clip-rule="nonzero"/></clipPath><clipPath id="61f77f842a"><path d="M 0 75 L 150 75 L 150 150 L 0 150 Z M 0 75 " clip-rule="nonzero"/></clipPath><clipPath id="b17d6a81fa"><path d="M 0 74.871094 C 0 94.726562 7.886719 113.769531 21.929688 127.8125 C 35.96875 141.851562 55.011719 149.742188 74.871094 149.742188 C 94.726562 149.742188 113.769531 141.851562 127.8125 127.8125 C 141.851562 113.769531 149.742188 94.726562 149.742188 74.871094 C 149.742188 55.011719 141.851562 35.96875 127.8125 21.929688 C 113.769531 7.886719 94.726562 0 74.871094 0 C 55.011719 0 35.96875 7.886719 21.929688 21.929688 C 7.886719 35.96875 0 55.011719 0 74.871094 Z M 0 74.871094 " clip-rule="nonzero"/></clipPath><clipPath id="9e78ff0c22"><path d="M 0 16 L 88 16 L 88 134 L 0 134 Z M 0 16 " clip-rule="nonzero"/></clipPath><clipPath id="10cb18dc91"><path d="M 0 74.871094 C 0 94.726562 7.886719 113.769531 21.929688 127.8125 C 35.96875 141.851562 55.011719 149.742188 74.871094 149.742188 C 94.726562 149.742188 113.769531 141.851562 127.8125 127.8125 C 141.851562 113.769531 149.742188 94.726562 149.742188 74.871094 C 149.742188 55.011719 141.851562 35.96875 127.8125 21.929688 C 113.769531 7.886719 94.726562 0 74.871094 0 C 55.011719 0 35.96875 7.886719 21.929688 21.929688 C 7.886719 35.96875 0 55.011719 0 74.871094 Z M 0 74.871094 " clip-rule="nonzero"/></clipPath></defs><g clip-path="url(#5c3fe0832b)"><g clip-path="url(#7cf274c863)"><path fill="#ffffff" d="M 0 0 L 150 0 L 150 75 L 0 75 Z M 0 0 " fill-opacity="1" fill-rule="nonzero"/></g></g><g clip-path="url(#61f77f842a)"><g clip-path="url(#b17d6a81fa)"><path fill="#d7141a" d="M 0 75 L 150 75 L 150 150 L 0 150 Z M 0 75 " fill-opacity="1" fill-rule="nonzero"/></g></g><g clip-path="url(#9e78ff0c22)"><g clip-path="url(#10cb18dc91)"><path fill="#11457e" d="M 87.890625 75 L 0 16.40625 L 0 133.59375 Z M 87.890625 75 " fill-opacity="1" fill-rule="nonzero"/></g></g></svg>