<svg xmlns="http://www.w3.org/2000/svg" xmlns:xlink="http://www.w3.org/1999/xlink" width="200" zoomAndPan="magnify" viewBox="0 0 150 149.999998" height="200" preserveAspectRatio="xMidYMid meet" version="1.0"><defs><clipPath id="4344620da6"><path d="M 0 99 L 150 99 L 150 150 L 0 150 Z M 0 99 " clip-rule="nonzero"/></clipPath><clipPath id="2ed925873b"><path d="M 0 75 C 0 116.421875 33.578125 150 75 150 C 116.421875 150 150 116.421875 150 75 C 150 33.578125 116.421875 0 75 0 C 33.578125 0 0 33.578125 0 75 Z M 0 75 " clip-rule="nonzero"/></clipPath><clipPath id="8fa7d1c0d8"><path d="M 0 0 L 150 0 L 150 51 L 0 51 Z M 0 0 " clip-rule="nonzero"/></clipPath><clipPath id="a6f9696098"><path d="M 0 75 C 0 116.421875 33.578125 150 75 150 C 116.421875 150 150 116.421875 150 75 C 150 33.578125 116.421875 0 75 0 C 33.578125 0 0 33.578125 0 75 Z M 0 75 " clip-rule="nonzero"/></clipPath><clipPath id="4841e46694"><path d="M 0 50 L 150 50 L 150 100 L 0 100 Z M 0 50 " clip-rule="nonzero"/></clipPath><clipPath id="8fce0ab2d2"><path d="M 0 75 C 0 116.421875 33.578125 150 75 150 C 116.421875 150 150 116.421875 150 75 C 150 33.578125 116.421875 0 75 0 C 33.578125 0 0 33.578125 0 75 Z M 0 75 " clip-rule="nonzero"/></clipPath></defs><g clip-path="url(#4344620da6)"><g clip-path="url(#2ed925873b)"><path fill="#ffcc00" d="M 0 99.988281 L 150 99.988281 L 150 150 L 0 150 Z M 0 99.988281 " fill-opacity="1" fill-rule="nonzero"/></g></g><g clip-path="url(#8fa7d1c0d8)"><g clip-path="url(#a6f9696098)"><path fill="#000001" d="M 0 0 L 150 0 L 150 50.007812 L 0 50.007812 Z M 0 0 " fill-opacity="1" fill-rule="nonzero"/></g></g><g clip-path="url(#4841e46694)"><g clip-path="url(#8fce0ab2d2)"><path fill="#ff0000" d="M 0 50.007812 L 150 50.007812 L 150 99.988281 L 0 99.988281 Z M 0 50.007812 " fill-opacity="1" fill-rule="nonzero"/></g></g></svg>