<svg xmlns="http://www.w3.org/2000/svg" xmlns:xlink="http://www.w3.org/1999/xlink" width="200" zoomAndPan="magnify" viewBox="0 0 150 149.999998" height="200" preserveAspectRatio="xMidYMid meet" version="1.0"><defs><clipPath id="76a5a4e16c"><path d="M 0 75 C 0 116.421875 33.578125 150 75 150 C 116.421875 150 150 116.421875 150 75 C 150 33.578125 116.421875 0 75 0 C 33.578125 0 0 33.578125 0 75 Z M 0 75 " clip-rule="nonzero"/></clipPath></defs><g clip-path="url(#76a5a4e16c)"><rect x="-15" width="180" fill="#012169" y="-15" height="179.999997" fill-opacity="1"/><path fill="#ffffff" d="M 150 0 L 150 18.75 L 94.335938 75 L 150 129.785156 L 150 150 L 130.371094 150 L 74.414062 94.921875 L 19.921875 150 L 0 150 L 0 130.078125 L 54.492188 75.292969 L 0 21.679688 L 0 0 L 18.164062 0 L 74.414062 55.078125 L 128.90625 0 Z M 150 0 " fill-opacity="1" fill-rule="nonzero"/><path fill="#c8102e" d="M 53.90625 94.921875 L 57.128906 104.882812 L 12.304688 150 L 0 150 L 0 149.121094 Z M 90.234375 91.40625 L 106.054688 93.75 L 150 136.816406 L 150 150 Z M 150 0 L 93.75 57.421875 L 92.578125 44.53125 L 136.523438 0 Z M 0 0.292969 L 56.542969 55.664062 L 39.257812 53.320312 L 0 14.355469 Z M 0 0.292969 " fill-opacity="1" fill-rule="nonzero"/><path fill="#ffffff" d="M 51.5625 0 L 51.5625 150 L 98.4375 150 L 98.4375 0 Z M 0 51.5625 L 0 98.4375 L 150 98.4375 L 150 51.5625 Z M 0 51.5625 " fill-opacity="1" fill-rule="nonzero"/><path fill="#c8102e" d="M 0 60.9375 L 0 89.0625 L 150 89.0625 L 150 60.9375 Z M 60.9375 0 L 60.9375 150 L 89.0625 150 L 89.0625 0 Z M 60.9375 0 " fill-opacity="1" fill-rule="nonzero"/></g></svg>